# xmcd
#
# Track frame offsets:
#	150
#	15977
#	30613
#	45149
#	60303
#	76237
#	89984
#	104354
#	118658
#	132633
#	147460
#	161867
#	175804
#	189887
#	203806
#	218243
#	232147
#	247079
#
# Disc length: 3479 seconds
#
# Revision: 0
# Processed by: cddbd v1.5.2PL0 Copyright (c) Steve Scherf et al.
# Submitted via: EasyCDDAExtractor 16.0.6.1
#
DISCID=fd0d9512
DTITLE=Συλλογικός δίσκος - Ρεμπέτικες καντάδες
DYEAR=1997
DGENRE=Ρεμπέτικη
TTITLE0=Παγιουμτζής Στράτος - Απόψε θά 'ρθω να στα ψάλλω [Μ.Βαμβακάρης-Γ.Σταμο
TTITLE0=ύλης]
TTITLE1=Περπινιάδης Στελλάκης - Όλες τις όμορφες [Σ. Περπινιάδης]
TTITLE2=Παγιουμτζής Στράτος - Ναζιάρα σε φωνάζουν [Δημ. Γκόγκος]
TTITLE3=Περπινιάδης Στελλάκης - Σ' έχω βαρεθεί [Στ. Παντελίδης]
TTITLE4=Παγιουμτζής Στράτος - Ο κόσμος πλούτη λαχταρά [Κ. Σκαρβέλης]
TTITLE5=Περπινιάδης Στελλάκης - Με δυό φιλιά σου ψεύτικα [Κ. Καρίπης]
TTITLE6=Παγιουμτζής Στράτος - Τώρα γυρνάς τις γειτονιές [Β. Τσιτσάνης]
TTITLE7=Περπινιάδης Στελλάκης - Ποιος είμαι δεν θυμάσαι [Κ. Σκαρβέλης]
TTITLE8=Παγιουμτζής Στράτος - Χίλιες γυναίκες γνώρισα [Σ. Παγιουμτζής]
TTITLE9=Περπινιάδης Στελλάκης - Είμαι παιδάκι έξυπνο [Σ. Περπινιάδης]
TTITLE10=Παγιουμτζής Στράτος - Να πάμε για τη Βούλα [Παν. Τούντας-Β. Τσιτσάνης
TTITLE10=]
TTITLE11=Περπινιάδης Στελλάκης - Μικρή απ' το Πασαλιμάνι [Δημ. Γκόγκος]
TTITLE12=Παγιουμτζής Στράτος - Η μάννα που σε γέννησε [Κ. Κάνουλας]
TTITLE13=Περπινιάδης Στελλάκης - Δεν είσαι εσύ για μένα [Κ. Σκαρβέλης]
TTITLE14=Παγιουμτζής Στράτος - Το οργανάκι [Γ. Μητσάκης]
TTITLE15=Περπινιάδης Στελλάκης - Η Μαγδάλω [Χρ. Πύρπασος-Κ. Κάνουλας]
TTITLE16=Παγιουμτζής Στράτος - Σε γελάσανε [Κ. Σκαρβέλης]
TTITLE17=Περπινιάδης Στελλάκης - Δεν σε θέλω [Κ. Καρίπης]
EXTD=
EXTT0=
EXTT1=
EXTT2=
EXTT3=
EXTT4=
EXTT5=
EXTT6=
EXTT7=
EXTT8=
EXTT9=
EXTT10=
EXTT11=
EXTT12=
EXTT13=
EXTT14=
EXTT15=
EXTT16=
EXTT17=
PLAYORDER=
